<?xml version="1.0" encoding="utf-8" ?><svg xmlns="http://www.w3.org/2000/svg" xmlns:xlink="http://www.w3.org/1999/xlink" width="1024" height="1024" viewBox="0 0 1024 1024"><path d="M0 0L1024 0L1024 1024L0 1024L0 0Z"/><path fill="#09E1F7" d="M505.328 163.687C518.262 162.32 529.74 163.876 540.313 172.015C562.803 189.288 569.366 226.39 551.434 249.137C541.324 261.96 528.939 266.355 513.301 268.244C512.802 270.347 512.37 272.547 511.92 274.667C558.115 278.636 576.317 292.879 611.408 318.607C630.664 307.467 636.381 296.755 641.164 275.18C643.498 264.653 649.155 243.976 664.218 254.722C676.487 263.474 683.32 276.418 685.923 291.185C691.353 321.987 679.854 351.366 662.589 376.43C671.766 388.448 685.35 412.853 692.152 426.391C735.15 511.97 757.184 630.385 726.721 723.162C708.531 778.948 668.75 825.121 616.269 851.363C553.512 883.062 481.634 885.573 415.375 863.692C390.814 855.155 367.793 842.705 347.203 826.824C227.995 734.756 249.862 559.076 305.802 437.904C316.112 415.573 327.18 394.812 342.247 375.36C317.79 350.614 306.927 303.449 324.906 272.239C328.249 266.436 337.82 252.244 344.502 251.105C359.435 248.766 363.096 277.57 366.098 287.815C370.817 303.914 377.6 309.604 392.049 318.482C424.221 294.867 450.247 276.384 491.601 274.808C492.618 267.577 495.158 259.266 498.613 252.81C500.89 248.556 508.315 248.649 512.823 247.553C522.392 245.465 534.429 241.015 539.801 232.171C547.591 219.343 541.234 197.894 529.416 189.403C521.763 183.906 511.797 182.721 502.885 184.935C494.917 186.902 488.082 192.006 483.933 199.088C477.324 210.489 479.524 221.187 482.725 233.038C481.389 237.201 479.504 241.167 474.668 241.861C472.029 242.253 469.344 241.554 467.231 239.924C462.484 236.289 461.065 229.23 460.107 223.656C455.962 199.537 469.377 175.048 492.579 166.631C497.023 165.019 500.666 164.347 505.328 163.687Z"/><path d="M501.344 294.703C534.445 290.331 580.424 317.604 604.636 339.598C618.973 352.622 633.152 370.533 644.223 386.364C690.842 453.856 717.488 533.123 721.103 615.07C725.139 718.168 680.34 812.83 577.03 845.267C550.354 853.642 530.508 855.959 502.625 857.014C450.909 858.456 396.613 840.805 356.283 808.045C311.221 771.441 287.271 718.035 281.927 660.393C272.776 561.688 311.099 444.586 372.163 367.237C394.165 339.368 429.486 311.196 463.558 301.202C477.202 297.2 487.357 296.086 501.344 294.703Z"/><path fill="#09E1F7" d="M382.924 458.628C390.369 457.827 406.956 458.479 415.208 458.529L479.199 458.78L564.296 458.841C579.31 458.815 594.606 458.114 609.519 458.919C624.186 459.704 643.611 464.311 647.17 481.171C650.365 496.305 649.336 514.274 649.199 529.76L649.045 574.855L649.032 625.702C649.025 636.456 649.166 646.835 648.551 657.577C647.495 676.033 639.82 687.364 621.476 692C572.508 692.839 521.158 692.343 472.155 692.291L425.751 692.418C409.026 692.484 383.873 694.126 368.419 686.748C362.867 684.098 358.52 674.785 357.419 668.668C354.166 650.595 355.335 631.397 355.337 613L355.261 537.726C355.286 529.867 355.176 522.011 354.866 514.156C353.905 489.829 354.309 464.71 382.924 458.628Z"/><path d="M386.237 478.665C394.497 478.069 407.282 478.583 416.025 478.658L470.214 478.963L566.053 479.01C584.166 479.001 602.871 478.729 620.944 479.083C632.548 487.134 629.137 510.289 629.028 522.859L628.95 569.704L629.013 620.017C629.116 629.49 629.592 638.961 629.433 648.432C629.261 658.637 627.903 668.034 617.272 672.243C597.25 673.027 571.687 672.196 551.175 672.185C503.493 671.781 455.808 671.888 408.128 672.507C396.79 672.622 383.766 673.196 375.018 664.632L375.335 538.852C375.403 531.475 375.306 524.097 375.044 516.725C374.553 504.208 370.637 482.733 386.237 478.665Z"/><path fill="#09E1F7" d="M448.446 545.075C459.501 545.46 471.815 562.468 478.56 570.5C504.769 536.011 504.871 537.917 529.191 570.267C531.618 567.145 534.078 564.049 536.572 560.98C540.289 556.473 548.845 545.697 555.348 545.826C559.697 545.912 563.376 549.531 566.03 552.639C570.534 557.915 589.078 581.458 588.464 587.326C588.19 589.942 586.776 592.484 584.728 594.132C582.745 595.728 579.922 596.623 577.384 596.306C569.45 595.314 559.848 578.969 554.728 572.785L554.406 572.371C554.138 572.337 553.87 572.304 553.601 572.27C547.309 579.694 540.574 588.451 533.088 594.597C531.816 595.641 529.236 596.316 527.868 596.699C519.298 593.673 509.381 578.219 504.001 570.57C500.664 574.718 497.296 578.84 493.896 582.937C489.667 587.969 481.195 599.928 473.69 593.75C465.709 587.181 459.353 578.292 451.613 571.231L451.036 570.71C444.928 578.753 440.21 588.745 432.089 594.854C425.012 601.108 414.664 589.348 417.944 583.821C423.551 574.371 439.29 549.207 448.446 545.075Z"/><path fill="#09E1F7" d="M400.336 727.007C421.277 724.37 440.381 739.23 442.979 760.175C445.576 781.12 430.68 800.197 409.731 802.755C388.836 805.306 369.821 790.458 367.23 769.569C364.64 748.679 379.452 729.636 400.336 727.007Z"/><path d="M402.767 747.338C412.467 746.032 421.374 752.875 422.613 762.584C423.853 772.292 416.95 781.153 407.233 782.326C397.609 783.488 388.851 776.665 387.624 767.05C386.397 757.434 393.16 748.63 402.767 747.338Z"/><path fill="#09E1F7" d="M597.136 726.961C617.806 724.164 636.853 738.591 639.759 759.246C642.665 779.901 628.339 799.024 607.699 802.039C586.905 805.077 567.608 790.62 564.68 769.81C561.752 749 576.311 729.779 597.136 726.961Z"/><path d="M599.049 747.376C608.513 745.604 617.632 751.803 619.467 761.255C621.302 770.707 615.164 779.867 605.724 781.765C596.196 783.68 586.93 777.471 585.078 767.93C583.226 758.389 589.496 749.165 599.049 747.376Z"/><path fill="#09E1F7" d="M497.42 757.439C517.981 754.114 537.333 768.115 540.607 788.684C543.88 809.253 529.829 828.57 509.252 831.791C488.749 835 469.516 821.01 466.255 800.516C462.993 780.021 476.934 760.752 497.42 757.439Z"/><path d="M500.602 777.84C509.908 776.267 518.747 782.476 520.424 791.763C522.101 801.051 515.991 809.958 506.722 811.739C500.634 812.908 494.387 810.716 490.366 805.998C486.344 801.28 485.167 794.765 487.286 788.939C489.404 783.112 494.489 778.874 500.602 777.84Z"/><path fill="#09E1F7" d="M587.207 391.692C598.105 391.126 607.431 399.432 608.126 410.322C608.821 421.213 600.627 430.636 589.746 431.461C582.591 432.003 575.697 428.657 571.697 422.7C567.697 416.743 567.209 409.095 570.419 402.678C573.629 396.26 580.041 392.064 587.207 391.692Z"/><path fill="#09E1F7" d="M414.519 391.704C425.447 390.173 435.53 397.835 436.983 408.773C438.436 419.711 430.702 429.74 419.754 431.114C408.916 432.475 399.01 424.836 397.572 414.008C396.133 403.18 403.701 393.22 414.519 391.704Z"/><path d="M661.097 280.895C662.582 283.315 664.475 289.859 665.014 292.718C669.946 318.888 665 337.833 650.838 359.712C647.98 356.962 644.959 353.05 642.399 349.922C638.52 344.948 631.743 338.044 627.279 333.526C649.202 315.981 652.728 306.767 661.097 280.895Z"/><path d="M343.133 280.812C344.647 283.606 346.797 293.087 347.854 296.68C352.488 312.421 363.163 323.947 376.207 333.457C371.08 339.413 365.804 345.321 360.603 351.219L353.364 359.634C340.12 338.457 327.661 303.856 343.133 280.812Z"/></svg>