<?xml version="1.0" encoding="utf-8"?>
<svg xmlns="http://www.w3.org/2000/svg" width="512" height="512" viewBox="0 0 512 512">
  <rect width="512" height="512" fill="#0A0E1A"/>
  <path transform="scale(1 1)" fill="#00E5FF" d="M250.035 129.645C251.015 126.102 252.258 120.663 254.042 117.513C254.785 116.202 280.155 116.831 275.879 97.3408C271.094 74.7042 236.922 82.0511 244.813 107.288C246.697 113.312 234.379 119.572 233.342 100.751C232.556 86.5088 243.576 74.4822 257.786 73.774C288.228 69.2216 300.279 122.295 261.342 126.578L260.581 129.645C284.77 131.416 295.218 139.581 313.268 152.497C322.372 147.941 326.239 140.487 328.387 130.776C329.724 124.997 332.355 114.03 341.326 121.106C359.52 135.457 351.529 165.864 339.474 181.992C373.026 228.527 390.752 304.164 372.986 358.663C350.982 426.163 275.602 453.084 211.137 431.261C108.307 394.175 119.65 271.698 164.939 193.745C167.316 189.654 169.89 185.185 173.388 181.992C161.216 169.425 154.937 145.985 163.571 129.851C174.635 111.211 180.527 116.07 184.622 135.154C186.514 143.974 191.371 148.029 198.518 152.497C215.792 140.998 226.682 130.876 250.035 129.645ZM173.388 133.392C165.303 146.362 172.155 161.95 178.863 173.53C180.513 171.499 181.119 170.605 183.243 169.077C185.597 165.391 187.742 163.45 190.546 160.268C183.347 154.409 178.077 149.474 175.524 140.315C175.21 139.191 173.975 133.881 173.388 133.392ZM338.375 133.392C334.963 146.665 331.811 151.723 321.225 160.268C324.632 163.303 326.631 165.634 329.53 169.077L333.31 173.53C340.173 162.647 343.439 153.113 340.679 139.999C340.349 138.433 339.452 134.478 338.375 133.392ZM254.091 140.02C224.88 140.707 199.784 161.512 183.403 184.401C142.842 241.077 117.981 344.905 176.306 398.802C197.287 418.191 230.513 430.037 259.063 427.988C303.242 427.411 344.804 403.73 360.875 361.582C385.072 298.123 357.835 211.843 312.073 165.365C300.514 153.545 270.988 136.026 254.091 140.02Z M212.126 210.422C206.48 210.458 201.865 205.928 201.797 200.283C201.729 194.638 206.233 189.998 211.878 189.898C217.567 189.798 222.252 194.346 222.32 200.035C222.389 205.725 217.816 210.385 212.126 210.422Z M301.129 210.385C295.512 210.905 290.536 206.77 290.019 201.152C289.502 195.534 293.639 190.561 299.257 190.046C304.872 189.532 309.84 193.666 310.357 199.28C310.874 204.894 306.743 209.865 301.129 210.385Z M228.72 282.536C226.315 285.82 221.667 294.238 218.296 295.398C213.662 296.994 209.364 290.838 213.311 286.378C216.593 282.668 223.048 270.598 227.84 269.558C233.254 269.886 239.427 278.672 242.953 282.536C257.503 266.171 255.7 265.078 269.521 282.536C272.864 278.717 281.225 264.837 287.182 272.151C291.323 277.235 295.796 282.663 299.29 288.208C302.133 293.215 295.008 300.015 288.899 291.533C286.792 288.606 284.732 285.854 282.288 283.205C268.567 297.511 270.462 302.334 256.366 282.536C240.35 301.534 244.334 297.837 228.72 282.536Z"/>
</svg>
