<?xml version="1.0" encoding="utf-8" ?><svg xmlns="http://www.w3.org/2000/svg" xmlns:xlink="http://www.w3.org/1999/xlink" width="3538" height="3538" viewBox="0 0 3538 3538"><path fill="#002241" transform="scale(3.45473 3.45473)" d="M0 0L76.1431 0L76.8029 0L152.668 0L153.384 0L230.073 0L230.936 0L306.127 0L306.967 0L383.46 0L384.46 0L459.546 0L460.522 0L536.587 0L537.755 0L613.245 0L614.384 0L689.745 0L690.826 0L766.6 0L767.807 0L842.745 0L843.866 0L919.686 0L920.755 0L996.668 0L997.755 0L1024 0L1024 56.2014L1024 57.3649L1024 130.661L1024 131.327L1024 206.518L1024 207.447L1024 280.063L1024 281.103L1024 355.168L1024 356.445L1024 430.245L1024 431.474L1024 504.508L1024 505.719L1024 580.592L1024 581.755L1024 654.953L1024 655.865L1024 730.162L1024 730.89L1024 805.11L1024 805.871L1024 879.746L1024 880.755L1024 955.708L1024 956.355L1024 1024L997.933 1024L996.776 1024L920.755 1024L919.747 1024L843.756 1024L843.169 1024L767.208 1024L766.774 1024L690.755 1024L689.674 1024L614.255 1024L613.245 1024L537.36 1024L536.68 1024L460.34 1024L459.694 1024L384.29 1024L383.707 1024L306.838 1024L306.225 1024L230.823 1024L230.14 1024L153.243 1024L152.77 1024L76.7313 1024L76.2331 1024L0 1024L0 956.189L0 955.748L0 880.755L0 879.651L0 805.834L0 805.055L0 731.027L0 730.018L0 655.93L0 654.843L0 581.75L0 580.599L0 506.076L0 504.527L0 431.344L0 430.188L0 356.436L0 355.584L0 281.06L0 280.06L0 207.379L0 206.629L0 131.755L0 130.633L0 57.2827L0 56.6724L0 0Z"/><path fill="#010A20" transform="scale(3.45473 3.45473)" d="M996.381 880.865C998.042 880.437 1001.97 879.544 1003.36 880.797L1024 880.755L1024 955.708C1015.37 955.785 1006.74 955.601 998.072 955.712L996.954 955.8C990.154 955.299 977.863 955.681 970.54 955.692L920.755 955.642L920.755 880.755C945.229 880.744 972.1 880.191 996.381 880.865Z"/><path fill="#010A20" transform="scale(3.45473 3.45473)" d="M996.381 880.865C998.042 880.437 1001.97 879.544 1003.36 880.797L1024 880.755L1024 955.708C1015.37 955.785 1006.74 955.601 998.072 955.712L996.954 955.8C996.333 951.436 996.614 940.877 996.617 936.005L996.625 901.524C996.626 895.099 996.859 887.115 996.381 880.865Z"/><path fill="#000F27" transform="scale(3.45473 3.45473)" d="M996.381 880.865C998.042 880.437 1001.97 879.544 1003.36 880.797C1001.55 880.832 999.733 880.847 997.918 880.841C998.189 905.313 997.281 931.511 998.072 955.712L996.954 955.8C996.333 951.436 996.614 940.877 996.617 936.005L996.625 901.524C996.626 895.099 996.859 887.115 996.381 880.865Z"/><path fill="#010A20" transform="scale(3.45473 3.45473)" d="M990.918 131.792C992.929 131.082 995.941 130.81 997.852 131.837C1006.42 131.347 1015.02 132.218 1024 131.327L1024 206.518C1015.75 206.486 1007.58 206.043 999.357 206.604C997.84 206.764 998.504 206.949 997.293 206.062L996.083 206.649C989.559 205.887 976.933 206.417 969.768 206.41C953.638 206.255 937.508 206.233 921.378 206.343C920.943 204.971 920.955 202.872 920.875 201.346C920.597 178.268 920.747 154.849 920.755 131.748L990.918 131.792Z"/><path fill="#010A20" transform="scale(3.45473 3.45473)" d="M997.852 131.837C1006.42 131.347 1015.02 132.218 1024 131.327L1024 206.518C1015.75 206.486 1007.58 206.043 999.357 206.604L998.571 206.06C997.547 204.132 997.855 139.746 997.852 131.837Z"/><path fill="#000F27" transform="scale(3.45473 3.45473)" d="M990.918 131.792C992.929 131.082 995.941 130.81 997.852 131.837C997.855 139.746 997.547 204.132 998.571 206.06L999.357 206.604C997.84 206.764 998.504 206.949 997.293 206.062L996.083 206.649C997.144 204.061 996.528 138.798 996.491 131.891L990.918 131.792Z"/><path fill="#010A20" transform="scale(3.45473 3.45473)" d="M1024 505.719L1024 580.592L997.994 580.522L996.892 580.895C992.532 580.221 977.268 580.521 972.113 580.519L920.821 580.509L920.903 534.036C920.936 525.156 921.299 514.836 920.756 506.145C945.542 506.112 971.65 505.668 996.329 506.149L997.943 506.203C1005.43 505.679 1015.91 506.066 1024 505.719Z"/><path fill="#010A20" transform="scale(3.45473 3.45473)" d="M1024 505.719L1024 580.592L997.994 580.522C997.904 556.014 998.396 530.55 997.943 506.203C1005.43 505.679 1015.91 506.066 1024 505.719Z"/><path fill="#000F27" transform="scale(3.45473 3.45473)" d="M996.329 506.149L997.943 506.203C998.396 530.55 997.904 556.014 997.994 580.522L996.892 580.895C996.469 578.466 996.554 575.251 996.537 572.762C996.386 550.585 996.973 528.314 996.329 506.149Z"/><path fill="#010A20" transform="scale(3.45473 3.45473)" d="M996.384 281.252L997.994 281.162L1024 281.103L1024 355.168C1019.81 355.39 1001.44 355.738 997.909 354.845L996.55 354.838C993.556 355.991 927.811 355.24 920.857 355.211C921.353 330.919 920.623 305.637 920.894 281.16C945.306 281.198 972.313 280.438 996.384 281.252Z"/><path fill="#010A20" transform="scale(3.45473 3.45473)" d="M996.384 281.252L997.994 281.162L1024 281.103L1024 355.168C1019.81 355.39 1001.44 355.738 997.909 354.845L996.55 354.838C996.51 331.347 997.288 304.567 996.384 281.252Z"/><path fill="#000F27" transform="scale(3.45473 3.45473)" d="M996.384 281.252L997.994 281.162C997.905 297.904 997.903 314.647 997.988 331.389C997.999 337.324 998.36 349.48 997.909 354.845L996.55 354.838C996.51 331.347 997.288 304.567 996.384 281.252Z"/><path fill="#010A20" transform="scale(3.45473 3.45473)" d="M996.362 655.837L997.925 655.675C1005.85 656.207 1015.92 655.935 1024 655.865L1024 730.162C1015.35 729.982 1006.71 729.941 998.061 730.038L996.641 729.851C990.688 730.433 977.719 730.021 971.074 730.015L920.735 729.957L920.767 655.984C945.89 655.905 971.275 656.143 996.362 655.837Z"/><path fill="#010A20" transform="scale(3.45473 3.45473)" d="M996.362 655.837L997.925 655.675C1005.85 656.207 1015.92 655.935 1024 655.865L1024 730.162C1015.35 729.982 1006.71 729.941 998.061 730.038L996.641 729.851C996.167 706.073 997.474 679.242 996.362 655.837Z"/><path fill="#000F27" transform="scale(3.45473 3.45473)" d="M996.362 655.837L997.925 655.675L997.914 704.007C997.902 711.863 997.622 722.409 998.061 730.038L996.641 729.851C996.167 706.073 997.474 679.242 996.362 655.837Z"/><path fill="#010A20" transform="scale(3.45473 3.45473)" d="M996.589 356.39L997.336 357.113L997.618 356.771C999.831 356.235 1020.31 356.44 1024 356.445L1024 430.245C1015.31 430.238 1006.63 430.186 997.94 430.088C995.764 431.038 936.539 431.15 932.207 430.122L920.79 430.053C921.156 421.985 920.87 411.535 920.857 403.307L920.861 356.463C943.886 357.057 973.498 356.836 996.589 356.39Z"/><path fill="#010A20" transform="scale(3.45473 3.45473)" d="M997.618 356.771C999.831 356.235 1020.31 356.44 1024 356.445L1024 430.245C1015.31 430.238 1006.63 430.186 997.94 430.088C998.364 415.766 997.744 400.258 997.994 385.748C998.098 379.758 998.356 361.918 997.618 356.771Z"/><path fill="#000F27" transform="scale(3.45473 3.45473)" d="M996.589 356.39L997.336 357.113L997.618 356.771C998.356 361.918 998.098 379.758 997.994 385.748C997.744 400.258 998.364 415.766 997.94 430.088C995.764 431.038 936.539 431.15 932.207 430.122C938.801 429.773 947.718 430.029 954.439 430.032L996.526 430.138L996.589 356.39Z"/><path fill="#010A20" transform="scale(3.45473 3.45473)" d="M996.499 730.66L998.006 730.924C1006.67 731.07 1015.34 731.059 1024 730.89L1024 805.11C1016.48 805.08 1005.07 805.412 997.897 804.825L996.761 805.112C988.464 804.794 978.485 805.029 970.066 805.022L920.787 804.984L920.817 731.022L970.653 731.024C976.665 731.024 991.391 731.383 996.499 730.66Z"/><path fill="#010A20" transform="scale(3.45473 3.45473)" d="M998.006 730.924C1006.67 731.07 1015.34 731.059 1024 730.89L1024 805.11C1016.48 805.08 1005.07 805.412 997.897 804.825C998.305 797.713 997.962 786.843 997.955 779.489L998.006 730.924Z"/><path fill="#000F27" transform="scale(3.45473 3.45473)" d="M996.499 730.66L998.006 730.924L997.955 779.489C997.962 786.843 998.305 797.713 997.897 804.825L996.761 805.112C995.738 782.14 996.641 754.209 996.499 730.66Z"/><path fill="#010A20" transform="scale(3.45473 3.45473)" d="M996.385 805.531L997.953 805.69C1005.87 806.178 1015.84 805.841 1024 805.871L1024 879.746C1016.69 879.716 1004.74 879.306 997.946 879.984C997.22 880.267 997.557 880.146 996.523 879.836C990.255 879.297 977.718 879.667 970.872 879.669L920.767 879.685C920.684 862.672 920.702 845.659 920.821 828.646C921.182 822.926 921.05 814.876 920.708 809.205C920.765 807.325 920.469 807.459 921.337 806.126C926.738 805.585 936.072 805.865 941.821 805.879L978.016 805.908C982.634 805.909 992.184 806.182 996.385 805.531Z"/><path fill="#010A20" transform="scale(3.45473 3.45473)" d="M997.953 805.69C1005.87 806.178 1015.84 805.841 1024 805.871L1024 879.746C1016.69 879.716 1004.74 879.306 997.946 879.984C998.225 872.139 997.973 862.659 997.967 854.707L997.953 805.69Z"/><path fill="#000F27" transform="scale(3.45473 3.45473)" d="M996.385 805.531L997.953 805.69L997.967 854.707C997.973 862.659 998.225 872.139 997.946 879.984C997.22 880.267 997.557 880.146 996.523 879.836C996.939 878.346 996.725 868.663 996.699 866.57C996.448 846.277 996.92 825.797 996.385 805.531Z"/><path fill="#010A20" transform="scale(3.45473 3.45473)" d="M996.419 956.481L997.86 956.624C1001.13 956.112 1009.62 956.722 1013.49 956.669C1016.87 956.623 1020.72 956.406 1024 956.355L1024 1024L997.933 1024L996.776 1024L920.755 1024L920.755 956.256C926.172 957.15 939.309 956.789 945.516 956.784L996.419 956.481Z"/><path fill="#010A20" transform="scale(3.45473 3.45473)" d="M997.86 956.624C1001.13 956.112 1009.62 956.722 1013.49 956.669C1016.87 956.623 1020.72 956.406 1024 956.355L1024 1024L997.933 1024C997.867 1001.76 998.375 978.765 997.86 956.624Z"/><path fill="#000F27" transform="scale(3.45473 3.45473)" d="M996.419 956.481L997.86 956.624C998.375 978.765 997.867 1001.76 997.933 1024L996.776 1024C996.389 1017.85 996.669 1009.76 996.608 1003.46C996.461 987.942 996.941 971.968 996.419 956.481Z"/><path fill="#010A20" transform="scale(3.45473 3.45473)" d="M0 880.755L76.0614 880.755C76.0667 905.391 75.6832 931.055 76.1111 955.619L0 955.748L0 880.755Z"/><path fill="#010A20" transform="scale(3.45473 3.45473)" d="M0 131.755L76.0148 131.755L75.9907 206.396C64.8317 205.901 52.8522 206.48 41.6496 206.425C27.8508 206.357 13.7904 206.096 0 206.629L0 131.755Z"/><path fill="#010A20" transform="scale(3.45473 3.45473)" d="M0 506.076C25.205 505.919 50.5687 506.329 75.7096 506.073C76.6692 530.436 75.416 556.098 75.9302 580.523L0 580.599L0 506.076Z"/><path fill="#010A20" transform="scale(3.45473 3.45473)" d="M843.962 131.782L919.555 131.757C919.802 153.634 919.965 177.018 919.553 198.821L920.306 198.207L920.389 198.886C920.454 199.387 920.622 200.951 920.875 201.346C920.955 202.872 920.943 204.971 921.378 206.343L920.828 206.651L919.537 206.145C914.254 206.67 903.119 206.352 897.399 206.392L844.045 206.258L843.962 131.782Z"/><path fill="#000F27" transform="scale(3.45473 3.45473)" d="M919.553 198.821L920.306 198.207L920.389 198.886C920.454 199.387 920.622 200.951 920.875 201.346C920.955 202.872 920.943 204.971 921.378 206.343L920.828 206.651L919.537 206.145L919.553 198.821Z"/><path fill="#010A20" transform="scale(3.45473 3.45473)" d="M0 281.06L49.8669 281.099C57.4144 281.11 68.7412 281.529 75.9585 281.051C75.9699 305.356 75.5187 331.051 75.9525 355.245C51.0438 355.241 24.8565 355.039 0 355.584L0 281.06Z"/><path fill="#010A20" transform="scale(3.45473 3.45473)" d="M75.6533 655.919C76.3085 661.555 76.0068 673.427 76.0191 679.771L75.969 730.033L0 730.018L0 655.93L75.6533 655.919Z"/><path fill="#010A20" transform="scale(3.45473 3.45473)" d="M0 731.027C24.827 731 50.9207 731.459 75.6056 731.012C76.4023 736.587 75.9483 748.154 76.0572 754.195C76.3589 770.933 75.6386 788.368 76.0572 805.065C50.85 804.946 25.0883 805.43 0 805.055L0 731.027Z"/><path fill="#010A20" transform="scale(3.45473 3.45473)" d="M0 805.834C24.1152 805.846 51.9089 806.543 75.7158 805.82C76.0256 830.452 76.141 855.087 76.062 879.721C50.8251 879.514 25.149 880.103 0 879.651L0 805.834Z"/><path fill="#010A20" transform="scale(3.45473 3.45473)" d="M843.897 805.996C868.988 805.664 894.453 805.984 919.609 805.854L919.648 813.368C920.303 812.179 920.439 810.619 920.708 809.205C921.05 814.876 921.182 822.926 920.821 828.646C919.877 831.605 921.233 834.691 920.08 836.871L919.624 836.63C919.962 850.626 919.719 865.563 919.729 879.623L843.974 879.673L843.897 805.996Z"/><path fill="#000F27" transform="scale(3.45473 3.45473)" d="M919.648 813.368C920.303 812.179 920.439 810.619 920.708 809.205C921.05 814.876 921.182 822.926 920.821 828.646C919.877 831.605 921.233 834.691 920.08 836.871L919.624 836.63C919.357 830.21 919.365 819.672 919.648 813.368Z"/><path fill="#010A20" transform="scale(3.45473 3.45473)" d="M0 356.436L75.5922 356.523C76.319 363.341 75.9257 374.509 75.9916 381.618C76.1408 397.73 75.7774 414.008 75.968 430.128C51.3551 430.208 24.4153 430.79 0 430.188L0 356.436Z"/><path fill="#010A20" transform="scale(3.45473 3.45473)" d="M0 57.2827L76.0511 57.4206L76.0362 130.583C50.8641 130.61 25.1236 130.925 0 130.633L0 57.2827Z"/><path fill="#010A20" transform="scale(3.45473 3.45473)" d="M0 581.75L75.9291 581.762C75.7764 586.502 75.8393 591.379 75.9019 596.127C76.1601 615.702 75.7836 635.32 75.9972 654.89C51.9124 653.682 24.2586 655.963 0 654.843L0 581.75Z"/><path fill="#010A20" transform="scale(3.45473 3.45473)" d="M0 431.344L75.971 431.502C75.9539 455.588 75.5462 480.533 75.8361 504.528C50.9846 504.496 24.6736 505 0 504.527L0 431.344Z"/><path fill="#010A20" transform="scale(3.45473 3.45473)" d="M920.847 581.837L979.704 581.856C982.66 581.861 994.157 581.392 996.255 581.874L996.819 583.211C996.213 588.503 996.477 600.968 996.547 606.749C996.643 614.63 996.229 625.334 996.66 633.002L996.75 654.859L920.861 654.858C920.596 630.616 920.78 606.097 920.847 581.837Z"/><path fill="#010A20" transform="scale(3.45473 3.45473)" d="M0 207.379L76.0285 207.505L75.9827 279.985L0 280.06L0 207.379Z"/><path fill="#010A20" transform="scale(3.45473 3.45473)" d="M920.796 207.455C945.001 208.11 972.243 207.492 996.639 207.469L996.665 227.311C996.318 243.828 996.267 263.275 996.632 279.781C993.623 280.314 978.046 280.045 973.835 280.039L920.845 279.956C921.482 257.212 920.757 230.641 920.796 207.455Z"/><path fill="#010A20" transform="scale(3.45473 3.45473)" d="M153.464 956.282C160.163 957.269 169.796 956.612 176.844 956.783C194.338 957.209 212.688 956.252 230.065 956.505C229.988 978.145 229.616 1002.49 230.14 1024L153.243 1024L153.464 956.282Z"/><path fill="#010A20" transform="scale(3.45473 3.45473)" d="M306.94 956.357C315.314 956.99 324.634 956.774 333.11 956.774L383.661 956.472C383.083 962.266 383.335 969.206 383.498 975.117C383.941 991.252 383.02 1007.93 383.707 1024L306.838 1024C307.03 1003.41 307.663 976.645 306.94 956.357Z"/><path fill="#010A20" transform="scale(3.45473 3.45473)" d="M0 956.189C6.80038 956.995 13.6431 956.758 20.4945 956.756L54.6891 956.714C60.9433 956.713 69.5831 956.5 75.6057 957.107C76.6198 959.204 75.9893 1016.33 76.2331 1024L0 1024L0 956.189Z"/><path fill="#010A20" transform="scale(3.45473 3.45473)" d="M460.501 956.466C468.378 957.002 476.558 956.635 484.465 956.763C501.726 957.043 519.315 956.381 536.534 956.551C536.565 978.771 536.272 1001.84 536.68 1024L460.34 1024L460.501 956.466Z"/><path fill="#010A20" transform="scale(3.45473 3.45473)" d="M843.756 1024C843.854 1008.65 843.871 993.296 843.806 977.944C843.805 974.084 843.554 959.842 844.256 957.165C845.675 956.192 859.183 956.79 862.481 956.797L901.854 956.712C905.982 956.707 915.287 956.231 918.928 956.929C920.078 961.433 919.736 976.377 919.742 981.536L919.747 1024L843.756 1024Z"/><path fill="#010A20" transform="scale(3.45473 3.45473)" d="M76.7313 1024C76.7617 1016.24 76.2682 958.823 77.4015 957.048C84.6751 956.249 98.3387 956.73 106.095 956.744L152.621 956.469C152.62 978.655 152.268 1001.89 152.77 1024L76.7313 1024Z"/><path fill="#010A20" transform="scale(3.45473 3.45473)" d="M690.837 956.412C707.446 956.78 724.061 956.885 740.674 956.728C747.011 956.71 759.554 956.182 765.251 956.749L766.101 956.827L766.61 956.88C766.631 978.336 766.104 1002.78 766.774 1024L690.755 1024L690.837 956.412Z"/><path fill="#010A20" transform="scale(3.45473 3.45473)" d="M537.755 956.387C545.678 957.119 554.557 956.597 562.557 956.768C579.183 957.121 596.739 956.301 613.268 956.525L613.245 1024L537.36 1024C537.702 1001.46 537.833 978.926 537.755 956.387Z"/><path fill="#010A20" transform="scale(3.45473 3.45473)" d="M767.755 956.267C772.075 957.074 785.608 956.789 790.648 956.783L843.096 956.458C843.142 978.193 842.586 1002.48 843.169 1024L767.208 1024C767.737 1001.43 767.919 978.846 767.755 956.267Z"/><path fill="#010A20" transform="scale(3.45473 3.45473)" d="M614.374 956.314C617.803 956.729 621.272 956.843 624.723 956.776C646.353 956.355 668.43 957.359 690 956.497L690.075 999.079C690.082 1005.79 690.391 1017.61 689.674 1024L614.255 1024L614.374 956.314Z"/><path fill="#010A20" transform="scale(3.45473 3.45473)" d="M230.858 956.368C256.294 956.759 280.793 956.492 306.151 956.514C305.748 977.178 305.771 1003.33 306.225 1024L230.823 1024C230.941 1002.36 231.419 977.777 230.858 956.368Z"/><path fill="#010A20" transform="scale(3.45473 3.45473)" d="M384.486 956.403C389.688 956.82 394.592 956.679 399.767 956.764C419.645 957.09 439.704 956.368 459.552 956.514C459.567 978.567 459.203 1002.06 459.694 1024L384.29 1024C384.496 1001.52 384.163 978.805 384.486 956.403Z"/><path fill="#010A20" transform="scale(3.45473 3.45473)" d="M306.967 0L383.46 0L383.51 56.1701L307.109 56.2106L306.967 0Z"/><path fill="#010A20" transform="scale(3.45473 3.45473)" d="M153.384 0L230.073 0C229.863 18.5852 229.904 37.657 230.005 56.245L153.419 56.2071C153.913 52.0046 153.536 42.1127 153.518 37.3748L153.384 0Z"/><path fill="#010A20" transform="scale(3.45473 3.45473)" d="M0 0L76.1431 0C76.0826 18.6847 75.8817 37.5778 76.0502 56.245C51.7019 56.2379 24.0422 55.6512 0 56.6724L0 0Z"/><path fill="#010A20" transform="scale(3.45473 3.45473)" d="M920.755 0L996.668 0C997.222 17.9225 996.702 38.164 996.626 56.249L920.75 56.2001L920.755 0Z"/><path fill="#010A20" transform="scale(3.45473 3.45473)" d="M460.522 0L536.587 0L536.537 56.205C511.643 56.3424 485.397 56.5108 460.567 56.123L460.522 0Z"/><path fill="#010A20" transform="scale(3.45473 3.45473)" d="M76.8029 0L152.668 0L152.579 56.245L76.9195 56.245L76.8029 0Z"/><path fill="#010A20" transform="scale(3.45473 3.45473)" d="M690.826 0L766.6 0L766.597 56.2155L690.93 56.1249L690.826 0Z"/><path fill="#010A20" transform="scale(3.45473 3.45473)" d="M843.866 0L919.686 0L919.613 56.245L843.939 56.2396C843.857 37.8299 843.484 18.3237 843.866 0Z"/><path fill="#010A20" transform="scale(3.45473 3.45473)" d="M537.755 0L613.245 0L613.264 56.1916C588.979 56.3146 561.822 56.798 537.74 56.0795C538.049 50.4233 537.772 42.6088 537.767 36.7255L537.755 0Z"/><path fill="#010A20" transform="scale(3.45473 3.45473)" d="M614.384 0L689.745 0L689.743 56.2143L614.458 56.1745L614.384 0Z"/><path fill="#010A20" transform="scale(3.45473 3.45473)" d="M230.936 0L306.127 0C305.77 18.4428 306.016 37.7142 306.034 56.2121L231.031 56.1743L230.936 0Z"/><path fill="#010A20" transform="scale(3.45473 3.45473)" d="M767.807 0L842.745 0L842.751 56.245C818.077 56.25 792.325 56.6223 767.748 56.1228C767.834 38.7689 766.877 16.8438 767.807 0Z"/><path fill="#010A20" transform="scale(3.45473 3.45473)" d="M384.46 0L459.546 0L459.504 56.1221C434.511 56.3032 409.517 56.3095 384.523 56.1412L384.46 0Z"/><path fill="#010A20" transform="scale(3.45473 3.45473)" d="M996.819 583.211C996.998 584.066 997.057 584.312 997.295 585.11C997.184 583.857 997.404 582.965 997.607 581.734L1024 581.755L1024 654.953C1015.43 654.787 1006.48 654.899 997.872 654.88C997.728 647.588 997.715 640.293 997.834 633L996.66 633.002C996.229 625.334 996.643 614.63 996.547 606.749C996.477 600.968 996.213 588.503 996.819 583.211Z"/><path fill="#000F27" transform="scale(3.45473 3.45473)" d="M996.819 583.211C996.998 584.066 997.057 584.312 997.295 585.11C997.184 583.857 997.404 582.965 997.607 581.734C998.345 586.397 998.137 602.531 998.023 607.869C997.886 614.285 998.351 626.937 997.834 633L996.66 633.002C996.229 625.334 996.643 614.63 996.547 606.749C996.477 600.968 996.213 588.503 996.819 583.211Z"/><path fill="#010A20" transform="scale(3.45473 3.45473)" d="M997.866 207.377C1006.03 207.694 1015.72 207.448 1024 207.447L1024 280.063C1015.55 280.053 1006.37 280.208 997.985 279.842L996.632 279.781C996.267 263.275 996.318 243.828 996.665 227.311L997.211 229.434C997.258 227.923 997.466 227.152 997.778 225.701C997.731 219.593 997.76 213.484 997.866 207.377Z"/><path fill="#000F27" transform="scale(3.45473 3.45473)" d="M996.665 227.311L997.211 229.434C997.258 227.923 997.466 227.152 997.778 225.701C998.235 243.525 997.884 261.961 997.985 279.842L996.632 279.781C996.267 263.275 996.318 243.828 996.665 227.311Z"/><path fill="#010A20" transform="scale(3.45473 3.45473)" d="M997.771 57.3906L1024 57.3649L1024 130.661L997.73 130.604L997.771 57.3906Z"/><path fill="#010A20" transform="scale(3.45473 3.45473)" d="M997.853 431.417L1024 431.474L1024 504.508C1015.48 504.682 1006.6 504.504 998.007 504.602C997.822 480.208 997.771 455.812 997.853 431.417Z"/><path fill="#010A20" transform="scale(3.45473 3.45473)" d="M997.755 0L1024 0L1024 56.2014C1021.23 56.9198 1001.46 56.262 997.731 56.245C998.09 37.8947 997.757 18.4399 997.755 0Z"/><path fill="#010A20" transform="scale(3.45473 3.45473)" d="M306.988 880.755L383.503 880.749C382.881 904.547 383.542 931.54 383.588 955.554L306.939 955.59L306.988 880.755Z"/><path fill="#010A20" transform="scale(3.45473 3.45473)" d="M153.754 880.745L230.029 880.754C229.838 904.342 229.404 932.265 230.146 955.574L153.394 955.647C153.646 938.811 153.228 921.78 153.421 904.956C153.498 898.199 153.095 887.205 153.754 880.745Z"/><path fill="#010A20" transform="scale(3.45473 3.45473)" d="M532.127 880.752C533.861 880.646 534.576 880.473 536.229 881.064C536.781 883.354 536.563 899.362 536.562 902.568C536.506 920.245 536.539 937.921 536.659 955.597L463.375 955.532C462.072 955.613 462.091 955.713 460.952 955.132C460.303 953.69 460.298 886.935 460.827 880.861C484.036 880.335 508.769 880.816 532.127 880.752Z"/><path fill="#010A20" transform="scale(3.45473 3.45473)" d="M153.566 131.744L229.936 131.841L229.925 183.431C229.923 187.419 230.222 202.892 229.759 205.909L228.949 206.283C204.054 206.009 178.709 206.348 153.711 206.235C153.526 181.405 153.478 156.575 153.566 131.744Z"/><path fill="#010A20" transform="scale(3.45473 3.45473)" d="M380.293 131.723C382.482 131.772 381.648 131.41 383.228 132.33C383.754 140.014 383.408 151.057 383.4 159.132L383.421 206.393C376.521 205.921 366.158 206.229 359.003 206.24L314.762 206.242L307.339 206.365C307.024 181.48 306.943 156.592 307.095 131.705C311.074 131.832 315.152 131.932 319.132 131.867C339.405 131.537 360.062 132.455 380.293 131.723Z"/><path fill="#010A20" transform="scale(3.45473 3.45473)" d="M690.793 880.755L766.575 880.755L766.686 955.617L690.918 955.58C690.432 930.677 691.175 905.597 690.793 880.755Z"/><path fill="#010A20" transform="scale(3.45473 3.45473)" d="M76.8557 880.75L152.57 880.753L152.622 955.574L76.8675 955.69C76.7126 930.71 76.7087 905.73 76.8557 880.75Z"/><path fill="#010A20" transform="scale(3.45473 3.45473)" d="M843.84 880.755L919.626 880.755L919.745 955.625L843.936 955.616C843.974 931.191 844.254 905.048 843.84 880.755Z"/><path fill="#010A20" transform="scale(3.45473 3.45473)" d="M153.839 281.137C171.11 281.763 188.983 280.727 206.324 281.179C213.999 281.379 222.298 281.505 229.923 281.15C229.924 289.317 230.348 353.757 229.381 355.224L227.147 355.234C203.293 354.879 177.387 356.045 153.794 355.161C153.569 330.486 153.584 305.811 153.839 281.137Z"/><path fill="#010A20" transform="scale(3.45473 3.45473)" d="M614.425 880.796C621.909 880.797 686.85 880.236 689.386 881.396C689.985 885.456 689.728 892.216 689.787 896.576L689.918 932.503C689.918 938.824 689.489 947.301 690.081 953.316L690.164 954.109L689.858 955.034C687.55 956.487 622.834 955.582 614.372 955.569L614.425 880.796Z"/><path fill="#010A20" transform="scale(3.45473 3.45473)" d="M841.383 880.752C842.132 880.642 841.69 880.64 842.694 880.955C843.76 883.859 843.043 947.293 843.093 955.588C818.521 955.715 793.948 955.712 769.375 955.577L768.32 955.291C768.136 955.03 767.953 954.768 767.77 954.506C767.766 933.908 767.759 899.94 767.755 880.745L841.383 880.752Z"/><path fill="#000F27" transform="scale(3.45473 3.45473)" d="M153.946 506.158L229.728 506.199C229.874 509.672 229.895 513.465 229.859 516.955C229.643 538.034 230.428 559.438 229.844 580.485L153.808 580.511C153.51 555.614 153.948 530.986 153.946 506.158Z"/><path fill="#010A20" transform="scale(3.45473 3.45473)" d="M537.755 880.741L613.259 880.747C612.953 901.473 613.414 922.282 613.232 943.016C613.196 947.216 613.219 951.342 613.626 955.527L537.765 955.538L537.755 880.741Z"/><path fill="#010A20" transform="scale(3.45473 3.45473)" d="M153.756 655.926C178.94 656.238 204.709 655.977 229.927 655.98L229.972 703.563C229.976 711.806 230.226 721.855 229.834 730.001C204.598 729.702 178.858 729.952 153.592 729.954L153.756 655.926Z"/><path fill="#010A20" transform="scale(3.45473 3.45473)" d="M153.794 731.018L229.929 731.048C229.942 740.066 230.969 802.151 229.366 804.999L153.417 804.974C153.999 799.421 153.512 787.485 153.566 781.464C153.718 764.797 153.311 747.665 153.794 731.018Z"/><path fill="#000F27" transform="scale(3.45473 3.45473)" d="M307.218 655.99L383.234 656.023C383.551 680.544 383.395 705.423 383.419 729.97C358.29 729.609 332.364 729.933 307.171 729.931C307.014 705.285 307.03 680.637 307.218 655.99Z"/><path fill="#010A20" transform="scale(3.45473 3.45473)" d="M76.8485 131.755L152.563 131.747C152.54 139.448 152.993 203.984 152.149 205.939L151.125 206.245L77.0284 206.419L76.8485 131.755Z"/><path fill="#000F27" transform="scale(3.45473 3.45473)" d="M307.159 731.082L383.222 731.079C383.732 755.354 383.457 780.674 383.475 805.014C358.957 804.383 331.74 804.96 307.05 804.967L307.159 731.082Z"/><path fill="#000F27" transform="scale(3.45473 3.45473)" d="M307.246 281.189C332.616 281.427 357.829 280.989 383.213 281.458C383.614 305.873 383.082 330.443 383.426 354.891C381.551 355.439 365.099 355.221 361.839 355.221L307.479 355.215C306.972 346.237 307.154 336.202 307.14 327.112L307.246 281.189Z"/><path fill="#010A20" transform="scale(3.45473 3.45473)" d="M460.685 131.851L536.444 131.858C536.478 139.079 536.849 204.727 535.999 206.023L534.125 206.2C510.291 206.251 484.338 206.72 460.657 206.068C461.333 182.354 460.498 155.856 460.685 131.851Z"/><path fill="#000F27" transform="scale(3.45473 3.45473)" d="M307.483 506.2L382.824 506.225L383.351 580.453L307.382 580.499C306.598 555.467 307.761 530.858 307.483 506.2Z"/><path fill="#010A20" transform="scale(3.45473 3.45473)" d="M153.732 805.967C178.945 805.644 204.708 805.98 229.979 805.974L230.065 879.66C205.08 879.177 178.814 879.723 153.641 879.61C153.062 858.763 153.682 837.737 153.511 816.875C153.481 813.284 153.481 809.541 153.732 805.967Z"/><path fill="#010A20" transform="scale(3.45473 3.45473)" d="M307.086 805.955L383.438 805.961L383.524 879.591C358.804 879.492 331.607 879.15 307.039 879.719L307.086 805.955Z"/><path fill="#010A20" transform="scale(3.45473 3.45473)" d="M690.876 131.831L766.532 131.852C766.53 139.728 766.961 204.247 766.074 206.169L764.375 206.27C740.449 205.85 715.073 206.226 691.046 206.304L690.876 131.831Z"/><path fill="#010A20" transform="scale(3.45473 3.45473)" d="M230.994 880.413C237.006 881.159 250.167 880.77 256.892 880.77L306.033 880.755C306.108 905.01 305.568 931.572 306.275 955.607C281.834 955.123 255.59 955.678 230.953 955.592L230.994 880.413Z"/><path fill="#010A20" transform="scale(3.45473 3.45473)" d="M384.614 880.757L459.52 880.755L459.584 955.573L384.434 955.612C384.349 930.66 384.409 905.708 384.614 880.757Z"/><path fill="#000F27" transform="scale(3.45473 3.45473)" d="M844.144 506.168L919.436 506.128C919.73 530.912 919.27 555.815 919.703 580.537L844.107 580.492L844.144 506.168Z"/><path fill="#010A20" transform="scale(3.45473 3.45473)" d="M76.9494 506.075L152.352 506.143L152.553 580.544C127.837 580.099 101.798 580.527 76.9774 580.543L76.9494 506.075Z"/><path fill="#010A20" transform="scale(3.45473 3.45473)" d="M153.778 356.495C178.517 357.062 204.982 356.563 229.911 356.617C229.915 364.112 230.327 428.67 229.354 430.018C204.177 430.157 179 430.156 153.823 430.014C154.337 406.281 153.631 380.514 153.778 356.495Z"/><path fill="#010A20" transform="scale(3.45473 3.45473)" d="M841.883 131.752L842.563 131.973C843.362 133.777 842.865 198.988 842.852 206.336C818.747 206.34 793.384 205.901 769.408 206.414C768.943 206.351 768.635 206.143 768.178 205.93C767.227 203.333 767.655 138.838 767.804 131.724C791.831 132.271 817.705 131.787 841.883 131.752Z"/><path fill="#010A20" transform="scale(3.45473 3.45473)" d="M614.463 131.727C638.538 132.449 665.329 131.808 689.587 131.867C689.96 156.491 689.966 181.119 689.604 205.743L688.875 206.267C664.086 206.166 639.297 206.194 614.508 206.353L614.463 131.727Z"/><path fill="#010A20" transform="scale(3.45473 3.45473)" d="M537.835 131.853L613.101 131.838C613.099 139.27 613.613 204.697 612.719 206.214L611.126 206.255C587.095 206.163 561.773 206.635 537.86 206.096C538.128 197.843 537.835 187.984 537.799 179.622C537.713 163.699 537.725 147.776 537.835 131.853Z"/><path fill="#000F27" transform="scale(3.45473 3.45473)" d="M461.09 506.237L536.254 506.232L536.419 580.434L460.945 580.438C460.51 564.492 460.811 548.449 460.746 532.493C460.71 523.705 461.281 515.046 461.09 506.237Z"/><path fill="#000F27" transform="scale(3.45473 3.45473)" d="M464.313 281.206C470.717 281.655 482.139 281.242 488.851 281.231L536.428 281.231L536.361 339.525C536.357 342.493 536.886 353.444 535.79 355.15L534.876 355.182C510.411 354.793 485.514 355.506 460.913 355.027C460.884 347.892 459.784 283.832 461.499 281.506L464.313 281.206Z"/><path fill="#010A20" transform="scale(3.45473 3.45473)" d="M77.0059 281.096L152.504 281.147C152.504 289.572 153.267 353.037 152.003 355.104L150.375 355.277C127.262 354.746 100.428 355.2 77.021 355.355L77.0059 281.096Z"/><path fill="#010A20" transform="scale(3.45473 3.45473)" d="M76.8831 731.018L152.507 731.021L152.621 805.063C127.946 804.562 101.692 805.018 76.894 805.027C76.7361 780.357 76.7324 755.687 76.8831 731.018Z"/><path fill="#000F27" transform="scale(3.45473 3.45473)" d="M691.078 506.209L766.331 506.195L766.548 580.485L691.087 580.453C691.014 555.85 691.39 530.712 691.078 506.209Z"/><path fill="#000F27" transform="scale(3.45473 3.45473)" d="M460.927 656.021L536.411 656.033L536.5 704.868C536.517 711.269 536.902 724.01 536.361 729.957C511.499 729.55 485.604 729.917 460.661 729.915C460.577 706.296 460.197 679.378 460.927 656.021Z"/><path fill="#010A20" transform="scale(3.45473 3.45473)" d="M690.977 731.08L766.495 731.015L766.599 805.006L690.983 804.935L690.977 731.08Z"/><path fill="#010A20" transform="scale(3.45473 3.45473)" d="M843.967 655.841C852.135 656.233 862.666 655.974 871.016 655.972L919.573 655.908L919.648 730.053C895.252 729.439 868.598 729.949 844.028 729.945L843.967 655.841Z"/><path fill="#010A20" transform="scale(3.45473 3.45473)" d="M230.91 131.73C255.47 132.218 281.345 131.775 306.009 131.838C305.819 150.022 306.181 168.393 306.036 186.583C306.012 189.671 306.288 204.33 305.716 206.214L304.233 206.381C281.542 205.633 254.152 206.191 231.089 206.36L230.91 131.73Z"/><path fill="#010A20" transform="scale(3.45473 3.45473)" d="M76.8827 655.889C101.558 656.357 127.7 655.97 152.494 655.939L152.562 730.02C127.767 729.589 101.825 729.976 76.9399 729.981L76.8827 655.889Z"/><path fill="#010A20" transform="scale(3.45473 3.45473)" d="M844.048 281.224C868.469 281.104 895.431 281.823 919.54 281.065L919.659 355.179C918.252 355.281 916.097 355.242 914.624 355.264C891.901 355.336 866.592 355.862 844.09 355.157L844.048 281.224Z"/><path fill="#000F27" transform="scale(3.45473 3.45473)" d="M460.961 731.167L536.425 731.117L536.51 779.978C536.522 786.444 536.886 799.197 536.331 804.977L460.62 804.916L460.645 758.506C460.656 750.052 460.383 739.414 460.961 731.167Z"/><path fill="#010A20" transform="scale(3.45473 3.45473)" d="M76.8033 805.813C86.2303 806.146 96.9414 805.911 106.488 805.922C121.822 805.992 137.157 805.973 152.491 805.864L152.6 879.636L76.9062 879.701C76.7348 855.072 76.7005 830.442 76.8033 805.813Z"/><path fill="#000F27" transform="scale(3.45473 3.45473)" d="M307.276 356.507C332.373 356.987 357.927 356.395 383.095 356.687C383.628 380.674 383.307 405.945 383.25 429.986L307.473 430.063C306.974 421.96 307.186 411.264 307.172 403.019C307.127 387.515 307.162 372.011 307.276 356.507Z"/><path fill="#010A20" transform="scale(3.45473 3.45473)" d="M153.936 57.407C178.949 57.791 204.897 57.4415 229.986 57.4465L229.919 130.032L229.035 130.572L153.466 130.63C154.016 126.051 153.743 118.071 153.703 113.267L153.498 78.6389C153.478 72.6369 153.208 63.1291 153.936 57.407Z"/><path fill="#010A20" transform="scale(3.45473 3.45473)" d="M306.989 57.3731C330.773 58.1959 359.086 57.4594 383.226 57.4608C383.663 65.5003 383.454 74.9141 383.445 83.0174C383.362 98.849 383.374 114.681 383.478 130.512L307.31 130.572C306.512 106.891 307.077 81.2561 306.989 57.3731Z"/><path fill="#000F27" transform="scale(3.45473 3.45473)" d="M690.964 655.952C715.386 656.407 742.019 656.101 766.492 655.935L766.545 730.012C741.843 729.536 715.832 729.932 691.011 729.9L690.964 655.952Z"/><path fill="#010A20" transform="scale(3.45473 3.45473)" d="M843.994 731.034C869.068 731.048 894.515 731.265 919.557 730.965L919.745 805.071C894.897 804.63 868.935 804.987 843.998 804.964L843.994 731.034Z"/><path fill="#000F27" transform="scale(3.45473 3.45473)" d="M538.14 506.242L612.788 506.232C613.092 526.494 613.121 558.417 612.99 579.747C612.802 579.985 612.614 580.223 612.426 580.461C587.809 580.161 562.618 580.427 537.954 580.417L537.752 536.172C537.792 526.159 538.295 516.244 538.14 506.242Z"/><path fill="#000F27" transform="scale(3.45473 3.45473)" d="M537.92 731.076L613.097 731.111C612.949 748.57 613.43 766.321 613.22 783.794C613.172 787.841 613.566 801.399 612.981 804.483L612.049 805C588.225 804.373 561.615 804.946 537.576 804.912C537.993 797.857 537.672 789.366 537.752 782.161C537.94 765.186 537.59 748.045 537.92 731.076Z"/><path fill="#010A20" transform="scale(3.45473 3.45473)" d="M460.817 806.037L536.471 805.962L536.565 854.903C536.575 861.264 536.965 873.733 536.367 879.573L460.557 879.562C460.544 856.904 459.811 828.424 460.817 806.037Z"/><path fill="#000F27" transform="scale(3.45473 3.45473)" d="M614.642 506.232L689.318 506.211L689.755 579.821L689.51 580.173C687.467 580.673 671.218 580.46 668.261 580.459L614.556 580.477L614.642 506.232Z"/><path fill="#010A20" transform="scale(3.45473 3.45473)" d="M690.9 806.024L766.533 805.916L766.646 879.604L690.973 879.575C690.776 855.058 690.752 830.541 690.9 806.024Z"/><path fill="#010A20" transform="scale(3.45473 3.45473)" d="M384.624 131.784C408.981 132.323 434.929 131.905 459.41 131.847C459.437 139.536 459.72 204.596 458.957 205.988L457.625 206.214L384.627 206.279C384.455 181.448 384.455 156.616 384.624 131.784Z"/><path fill="#000F27" transform="scale(3.45473 3.45473)" d="M691.065 281.237C714.943 281.877 742.364 281.262 766.502 281.226C766.504 288.266 766.867 353.384 766.002 354.943L764.18 355.273C740.013 354.863 715.173 355.756 691.069 355.084L691.065 281.237Z"/><path fill="#010A20" transform="scale(3.45473 3.45473)" d="M614.551 731.082L689.614 731.075C690.158 738.201 689.9 749.286 689.908 756.666L689.958 804.99L614.441 804.983C614.735 780.518 614.472 755.605 614.551 731.082Z"/><path fill="#000F27" transform="scale(3.45473 3.45473)" d="M231.138 506.182L305.807 506.201L306.021 580.468L231.076 580.508L231.138 506.182Z"/><path fill="#010A20" transform="scale(3.45473 3.45473)" d="M767.895 656.01L842.928 655.933L843.001 730.041L767.893 729.92L767.895 656.01Z"/><path fill="#000F27" transform="scale(3.45473 3.45473)" d="M768.102 506.203L842.773 506.162C842.958 530.935 843.014 555.71 842.941 580.485L767.905 580.475C767.783 555.717 767.849 530.959 768.102 506.203Z"/><path fill="#000F27" transform="scale(3.45473 3.45473)" d="M614.563 656.019L689.749 656.019C689.86 680.429 689.447 705.732 689.926 729.971L614.468 729.948C614.75 705.472 614.528 680.537 614.563 656.019Z"/><path fill="#000F27" transform="scale(3.45473 3.45473)" d="M153.84 581.795C178.202 582.511 205.223 581.804 229.878 581.964C229.924 603.977 230.787 632.44 229.848 653.946C228.897 654.93 228.75 654.584 226.891 654.669C202.649 654.484 178.025 654.785 153.741 654.857C154.058 630.753 153.601 606.059 153.84 581.795Z"/><path fill="#000F27" transform="scale(3.45473 3.45473)" d="M767.952 281.187C791.854 281.259 819.294 281.891 842.897 281.05L842.897 332.153C842.894 336.279 843.197 351.806 842.76 354.889L841.946 355.352L767.914 355.169C768.36 330.755 767.51 305.736 767.952 281.187Z"/><path fill="#010A20" transform="scale(3.45473 3.45473)" d="M76.9371 356.445C100.803 357.185 128.293 356.535 152.489 356.568L152.502 430.106L77.0097 430.159L76.9371 356.445Z"/><path fill="#000F27" transform="scale(3.45473 3.45473)" d="M537.927 656.057L613.038 656.029L613.214 707.065C613.218 711.374 613.492 726.386 612.907 729.953L537.692 729.898C538.574 706.708 537.808 679.654 537.927 656.057Z"/><path fill="#010A20" transform="scale(3.45473 3.45473)" d="M843.882 57.4061L919.68 57.4182C919.044 75.37 919.658 97.6784 919.624 116.047L920.453 116.503L920.849 119.145C921.075 123.117 920.993 126.574 920.905 130.561L919.86 130.91C917.042 130.341 900.199 130.557 896.165 130.559L844.035 130.564L843.882 57.4061Z"/><path fill="#000F27" transform="scale(3.45473 3.45473)" d="M919.624 116.047L920.453 116.503L920.849 119.145C921.075 123.117 920.993 126.574 920.905 130.561L919.86 130.91C919.293 127.549 919.507 119.539 919.624 116.047Z"/><path fill="#010A20" transform="scale(3.45473 3.45473)" d="M537.808 806.038L613.128 806.031L613.25 879.582C588.432 879.944 562.662 879.568 537.766 879.558L537.808 806.038Z"/><path fill="#010A20" transform="scale(3.45473 3.45473)" d="M920.823 57.4064L996.642 57.402C996.707 80.5749 997.394 107.693 996.638 130.591L920.905 130.561C920.993 126.574 921.075 123.117 920.849 119.145C920.537 100.603 920.14 75.6869 920.823 57.4064Z"/><path fill="#010A20" transform="scale(3.45473 3.45473)" d="M231.027 731.043L305.964 731.071L306.038 804.951L231.032 805.007L231.027 731.043Z"/><path fill="#010A20" transform="scale(3.45473 3.45473)" d="M767.891 731.055C792.484 731.459 818.242 731.043 842.951 731.024L843.024 805.048C818.741 804.451 792.2 804.971 767.738 804.96L767.891 731.055Z"/><path fill="#010A20" transform="scale(3.45473 3.45473)" d="M844.04 356.509C868.694 356.998 894.813 356.557 919.576 356.521L919.55 430.13L844.091 430.099L844.04 356.509Z"/><path fill="#000F27" transform="scale(3.45473 3.45473)" d="M153.864 431.457C178.976 431.79 204.717 431.485 229.909 431.553L229.859 504.139L229.074 504.388L153.914 504.438C154.346 480.398 153.363 455.788 153.864 431.457Z"/><path fill="#010A20" transform="scale(3.45473 3.45473)" d="M920.83 431.442C945.03 432.064 972.2 431.464 996.607 431.469C996.793 455.757 996.799 480.046 996.624 504.334C993.648 505.323 929.427 504.448 921.035 504.492C921.245 480.383 920.784 455.668 920.83 431.442Z"/><path fill="#010A20" transform="scale(3.45473 3.45473)" d="M767.845 805.924C791.62 806.136 819.426 806.482 843.005 805.826L843.051 879.709C819.676 878.891 791.458 879.611 767.739 879.58L767.845 805.924Z"/><path fill="#000F27" transform="scale(3.45473 3.45473)" d="M614.578 281.217C639.068 281.43 665.406 281.543 689.832 281.15C689.677 305.204 689.401 330.108 689.633 354.124L689.408 355.041C687.475 355.605 672.964 355.21 669.94 355.206L614.543 355.165L614.578 281.217Z"/><path fill="#000F27" transform="scale(3.45473 3.45473)" d="M538.365 281.224C542.811 281.445 547.611 281.401 552.067 281.29C572.187 280.787 593.013 282.019 613.048 281.2L613.041 355.256L563.823 355.181C555.691 355.179 545.895 355.45 537.928 355.034C538.408 337.674 537.542 319.311 537.858 301.871C537.932 297.812 537.478 284.177 538.365 281.224Z"/><path fill="#000F27" transform="scale(3.45473 3.45473)" d="M460.932 356.599L536.338 356.674C536.397 364.341 536.898 428.58 535.852 430.017L460.69 429.944C461.045 423.689 460.665 416.06 460.762 409.664C461.029 392.221 460.27 373.96 460.932 356.599Z"/><path fill="#000F27" transform="scale(3.45473 3.45473)" d="M231.03 655.855C238.885 656.342 250.635 656.006 258.709 656.014C274.456 656.1 290.203 656.059 305.949 655.891L306.002 729.987C281.657 729.48 255.518 729.936 231.052 729.933L231.03 655.855Z"/><path fill="#010A20" transform="scale(3.45473 3.45473)" d="M460.635 57.4442L536.52 57.482L536.508 113.162C536.507 116.06 536.873 128.762 535.899 130.535L460.769 130.528L460.635 57.4442Z"/><path fill="#000F27" transform="scale(3.45473 3.45473)" d="M307.374 431.483C332.178 431.949 358.348 431.547 383.253 431.573L383.262 481.271C383.256 483.497 383.094 503.858 382.792 504.349L334.307 504.36C326.476 504.381 314.647 504.806 307.357 504.195C307.68 502.706 307.289 487.134 307.278 484.5C307.173 466.828 307.205 449.155 307.374 431.483Z"/><path fill="#000F27" transform="scale(3.45473 3.45473)" d="M231.083 281.15C254.885 281.342 282.384 281.767 305.96 281.226L305.99 329.932C305.995 337.027 306.375 348.32 305.807 355.057L304.749 355.241L231.124 355.24L231.083 281.15Z"/><path fill="#000F27" transform="scale(3.45473 3.45473)" d="M384.829 731.101L459.283 731.091C459.858 755.124 459.468 780.83 459.494 804.981C434.963 804.545 409.168 804.947 384.535 804.944L384.536 758.871C384.539 750.109 384.327 739.75 384.829 731.101Z"/><path fill="#000F27" transform="scale(3.45473 3.45473)" d="M691.035 356.538C715.894 356.919 741.553 356.599 766.472 356.58L766.486 430.084L691.083 429.984L691.035 356.538Z"/><path fill="#010A20" transform="scale(3.45473 3.45473)" d="M230.977 805.926L306.019 805.908C305.802 829.129 305.569 856.53 306.21 879.612C281.363 879.276 255.956 879.759 230.994 879.63L230.977 805.926Z"/><path fill="#010A20" transform="scale(3.45473 3.45473)" d="M614.48 805.993L689.819 805.945C690.53 829.235 689.745 854.81 689.753 878.382L689.673 879.15C687.592 880.044 622.481 879.572 614.445 879.68C614.12 855.35 614.413 830.36 614.48 805.993Z"/><path fill="#000F27" transform="scale(3.45473 3.45473)" d="M384.725 506.225L458.817 506.236C459.512 515.523 459.301 525.698 459.329 535.1L459.384 580.462L384.607 580.476L384.725 506.225Z"/><path fill="#010A20" transform="scale(3.45473 3.45473)" d="M153.755 207.461C178.967 207.882 204.639 207.354 229.93 207.608C229.973 231.086 230.374 256.184 229.84 279.528L229.011 280.007L153.743 279.965C153.901 256.551 152.839 230.49 153.755 207.461Z"/><path fill="#010A20" transform="scale(3.45473 3.45473)" d="M76.8652 57.3669C101.79 57.7453 127.559 57.4257 152.551 57.4378L152.592 130.55L76.994 130.624L76.8652 57.3669Z"/><path fill="#000F27" transform="scale(3.45473 3.45473)" d="M384.749 281.25C409.313 281.223 434.853 280.899 459.356 281.408L459.422 355.119C435.794 355.478 408.136 355.572 384.687 355.06C384.616 330.834 384.189 305.366 384.749 281.25Z"/><path fill="#000F27" transform="scale(3.45473 3.45473)" d="M384.711 656.018L459.392 656.045L459.336 729.947L384.64 729.915C384.524 705.283 384.548 680.65 384.711 656.018Z"/><path fill="#000F27" transform="scale(3.45473 3.45473)" d="M307.864 581.747C314.797 582.356 327.668 581.995 334.916 581.999C350.977 582.054 367.038 582.017 383.099 581.89C383.311 599.917 383.382 617.946 383.311 635.975C383.313 638.929 383.616 652.4 383.195 654.142L382.125 654.565L307.365 654.77C307.132 638.635 307.052 622.499 307.123 606.363C307.13 602.206 306.846 584.97 307.864 581.747Z"/><path fill="#010A20" transform="scale(3.45473 3.45473)" d="M844.271 581.629C851.308 582.286 864.094 581.898 871.679 581.877L919.511 581.808C919.751 598.258 919.596 614.973 919.68 631.437C919.701 635.587 919.956 651.429 919.376 654.794C911.54 655.114 901.97 654.866 894.045 654.847L844.066 654.674L844.001 606.317C843.997 600.671 843.674 586.77 844.271 581.629Z"/><path fill="#000F27" transform="scale(3.45473 3.45473)" d="M307.187 207.459C315.644 207.812 325.597 207.583 334.179 207.586L383.293 207.634C383.017 231.492 383.399 256.027 383.33 279.974L307.248 279.965C307.039 255.797 307.019 231.627 307.187 207.459Z"/><path fill="#010A20" transform="scale(3.45473 3.45473)" d="M690.863 57.4233C715.914 57.7053 741.445 57.4547 766.534 57.4539L766.543 130.53C741.56 130.803 716.057 130.537 691.031 130.54L690.863 57.4233Z"/><path fill="#010A20" transform="scale(3.45473 3.45473)" d="M77.1056 581.692C101.902 582.447 127.604 581.357 152.433 581.913C152.529 589.989 153.477 652.367 151.96 654.694L76.9661 654.879L76.8762 604.878C76.8826 598.682 76.5855 587.512 77.1056 581.692Z"/><path fill="#010A20" transform="scale(3.45473 3.45473)" d="M384.64 806.029L459.407 805.981C459.787 830.353 459.399 855.137 459.58 879.585C434.811 879.335 409.3 879.522 384.503 879.623C384.487 855.228 384.302 830.403 384.64 806.029Z"/><path fill="#000F27" transform="scale(3.45473 3.45473)" d="M767.971 356.536C792.955 356.746 817.941 356.77 842.926 356.608L842.957 430.102L767.849 430.008C768.506 406.482 767.873 380.426 767.971 356.536Z"/><path fill="#000F27" transform="scale(3.45473 3.45473)" d="M537.927 356.628L613.054 356.653C612.813 376.547 613.247 396.529 613.02 416.432C612.975 420.409 613.397 425.697 612.817 429.493L612.009 429.958C587.474 430.202 562.531 430.026 537.978 429.952C538.083 405.515 537.658 381.094 537.927 356.628Z"/><path fill="#010A20" transform="scale(3.45473 3.45473)" d="M76.9284 431.394C100.907 432.103 128.25 431.485 152.486 431.522L152.398 504.45C127.295 504.361 102.192 504.4 77.0892 504.567L76.9284 431.394Z"/><path fill="#000F27" transform="scale(3.45473 3.45473)" d="M844.004 431.451C868.232 432.053 895.187 431.487 919.605 431.492L919.443 504.53L844.178 504.435L844.004 431.451Z"/><path fill="#000F27" transform="scale(3.45473 3.45473)" d="M614.537 356.545C639.012 357.034 664.976 356.643 689.568 356.635C689.991 364.243 689.727 374.235 689.707 381.99L689.546 428.625C689.437 429.302 689.353 429.288 689.021 429.926C684.27 430.425 669.878 430.06 664.48 430.052L614.536 429.947L614.537 356.545Z"/><path fill="#010A20" transform="scale(3.45473 3.45473)" d="M614.438 57.4408L689.685 57.4381C689.958 81.6414 689.254 106.419 689.771 130.318C687.921 130.708 671.992 130.55 669.124 130.549L614.485 130.522L614.438 57.4408Z"/><path fill="#010A20" transform="scale(3.45473 3.45473)" d="M537.789 57.442L613.164 57.4606L613.232 107.27C613.22 112.53 613.485 126.209 612.931 130.525L537.952 130.542C537.71 106.176 537.656 81.8087 537.789 57.442Z"/><path fill="#010A20" transform="scale(3.45473 3.45473)" d="M767.788 57.4123C792.284 57.8573 818.109 57.4365 842.711 57.4286C843.09 81.6051 842.506 105.91 842.912 129.854C841.157 131.01 827.642 130.56 824.407 130.56L767.768 130.534C768.35 107.033 767.749 81.2148 767.788 57.4123Z"/><path fill="#000F27" transform="scale(3.45473 3.45473)" d="M230.995 356.466C254.851 357.198 281.921 356.601 305.992 356.557C305.735 380.923 305.917 405.707 305.995 430.098L231.172 430.026C230.787 405.654 231.186 380.914 230.995 356.466Z"/><path fill="#000F27" transform="scale(3.45473 3.45473)" d="M460.75 582.013L536.316 582.009C536.381 589.471 536.894 653.1 535.914 654.655C511.725 654.038 485.102 654.559 460.745 654.545L460.75 582.013Z"/><path fill="#000F27" transform="scale(3.45473 3.45473)" d="M461.022 431.542L536.416 431.544C536.476 455.803 536.414 480.062 536.231 504.321C511.362 504.046 486.092 504.337 461.166 504.274C461.222 487.577 460.312 470.394 460.715 453.608C460.879 446.756 460.341 438.22 461.022 431.542Z"/><path fill="#000F27" transform="scale(3.45473 3.45473)" d="M691.038 431.525L766.475 431.512L766.421 477.93C766.395 486.299 766.133 496.125 766.503 504.39L691.217 504.332L691.038 431.525Z"/><path fill="#000F27" transform="scale(3.45473 3.45473)" d="M691.028 581.858C715.999 582.312 741.66 581.382 766.458 581.977C766.486 605.736 766.947 631.023 766.452 654.657C743.265 655.163 714.335 654.965 691.07 654.635L691.028 581.858Z"/><path fill="#000F27" transform="scale(3.45473 3.45473)" d="M460.758 207.55L536.454 207.611L536.429 279.959L460.706 279.912L460.758 207.55Z"/><path fill="#010A20" transform="scale(3.45473 3.45473)" d="M230.925 57.387C255.373 57.8722 281.438 57.465 306.02 57.4691C305.925 81.8343 305.953 106.2 306.103 130.565C281.31 130.269 255.901 130.544 231.062 130.577L230.925 57.387Z"/><path fill="#000F27" transform="scale(3.45473 3.45473)" d="M384.788 356.539C408.946 357.187 434.973 356.527 459.348 356.68C459.454 381.128 459.421 405.576 459.248 430.024L384.639 429.96C384.612 406.688 383.941 379.424 384.788 356.539Z"/><path fill="#010A20" transform="scale(3.45473 3.45473)" d="M76.9174 207.373C84.9671 207.76 95.3509 207.49 103.592 207.493L152.499 207.541L152.535 280.015L76.9945 279.999L76.9174 207.373Z"/><path fill="#010A20" transform="scale(3.45473 3.45473)" d="M384.544 57.4061C409.044 57.8521 434.807 57.4526 459.407 57.4543C459.759 81.6223 459.44 106.282 459.505 130.51L384.601 130.546C384.314 106.309 384.516 81.663 384.544 57.4061Z"/><path fill="#010A20" transform="scale(3.45473 3.45473)" d="M843.991 207.475C867.367 208.294 895.789 207.556 919.574 207.464L919.584 280.02L844.046 279.988L843.991 207.475Z"/><path fill="#000F27" transform="scale(3.45473 3.45473)" d="M767.854 431.516L842.941 431.528L842.822 504.432L768.046 504.354L767.854 431.516Z"/><path fill="#000F27" transform="scale(3.45473 3.45473)" d="M614.549 431.512L689.828 431.558L689.389 503.522L689.635 503.971C688.576 504.867 622.031 504.32 614.659 504.322L614.549 431.512Z"/><path fill="#000F27" transform="scale(3.45473 3.45473)" d="M839.749 581.747L842.877 581.712L842.973 654.697C820.051 654.76 796.728 654.451 773.875 654.781L767.843 654.73C768.182 630.683 767.886 605.928 767.897 581.833C789.922 582.455 817.683 582.245 839.749 581.747Z"/><path fill="#000F27" transform="scale(3.45473 3.45473)" d="M614.563 581.942L689.53 581.963C690.141 605.486 689.736 630.213 689.862 653.865L689.653 654.185C687.115 655.213 621.915 654.591 614.522 654.753L614.563 581.942Z"/><path fill="#000F27" transform="scale(3.45473 3.45473)" d="M537.932 581.95C562.474 582.363 588.361 582.058 612.963 581.881L613.082 630.113C613.094 637.426 613.39 647.45 612.94 654.611C588.174 654.282 562.706 654.577 537.894 654.577C538.407 631.511 538.037 605.185 537.932 581.95Z"/><path fill="#000F27" transform="scale(3.45473 3.45473)" d="M537.948 431.542L613.01 431.568L612.992 476.21C612.96 484.91 612.634 495.497 613.136 504.031L612.503 504.345L538.211 504.274C537.779 480.032 537.691 455.786 537.948 431.542Z"/><path fill="#000F27" transform="scale(3.45473 3.45473)" d="M231.14 581.674C234.984 581.919 239.135 581.948 242.988 581.908C263.868 581.689 285.039 582.465 305.887 581.704C306.321 605.876 305.731 630.345 306.052 654.596C281.586 654.22 255.633 654.587 231.084 654.682C231.043 630.432 230.877 605.904 231.14 581.674Z"/><path fill="#000F27" transform="scale(3.45473 3.45473)" d="M231.059 431.472L305.996 431.567C305.528 455.322 305.943 480.499 305.876 504.397C281.369 504.029 255.766 504.305 231.201 504.425L231.059 431.472Z"/><path fill="#010A20" transform="scale(3.45473 3.45473)" d="M690.992 207.545C716.061 207.926 741.461 207.162 766.499 207.633L766.507 280.027C741.894 279.516 715.764 279.931 691.052 279.909L690.992 207.545Z"/><path fill="#010A20" transform="scale(3.45473 3.45473)" d="M614.495 207.522L689.549 207.633C689.998 214.087 689.769 223.427 689.794 230.039C689.831 245.735 689.774 261.43 689.623 277.125C689.68 278.47 689.821 278.587 689.247 279.761C684.463 280.334 670.299 279.976 665.044 279.971L614.537 279.924L614.495 207.522Z"/><path fill="#000F27" transform="scale(3.45473 3.45473)" d="M537.886 207.538L613.109 207.581L613.055 259.995C613.047 263.338 613.296 277.332 612.89 279.487L612.021 279.976L537.805 279.9C538.172 271.28 537.876 261.374 537.835 252.675C537.77 237.629 537.787 222.584 537.886 207.538Z"/><path fill="#010A20" transform="scale(3.45473 3.45473)" d="M767.869 207.538C792.687 207.82 818.06 207.545 842.925 207.548L842.9 279.965L767.819 279.91C768.162 273.014 767.866 263.527 767.855 256.5L767.869 207.538Z"/><path fill="#000F27" transform="scale(3.45473 3.45473)" d="M384.702 431.532L459.334 431.534L459.046 504.314L384.676 504.337L384.702 431.532Z"/><path fill="#010A20" transform="scale(3.45473 3.45473)" d="M230.984 207.425C239.007 207.804 248.968 207.542 257.106 207.549L306.048 207.614C305.32 229.826 305.868 257.483 306.013 279.979L231.092 279.949L230.984 207.425Z"/><path fill="#000F27" transform="scale(3.45473 3.45473)" d="M384.721 581.983L459.252 582.036L459.451 654.573L384.707 654.583C383.998 632.077 384.513 604.732 384.721 581.983Z"/><path fill="#000F27" transform="scale(3.45473 3.45473)" d="M384.639 207.542L459.431 207.659L459.367 279.946L384.586 279.927L384.639 207.542Z"/></svg>